<svg xmlns="http://www.w3.org/2000/svg" xmlns:xlink="http://www.w3.org/1999/xlink" viewBox="0 0 530.4 313.11"><defs><style>.cls-1{fill:none;stroke:#fff;stroke-miterlimit:10;stroke-width:2px;}.cls-2{fill:url(#Gradiente_sem_nome_38);}.cls-3{fill:url(#Gradiente_sem_nome_16);}.cls-4{fill:#cb9eae;}.cls-5{fill:url(#Gradiente_sem_nome_16-2);}.cls-6{fill:url(#Gradiente_sem_nome_44);}.cls-7{fill:url(#Gradiente_sem_nome_44-2);}.cls-8{fill:url(#Gradiente_sem_nome_16-3);}.cls-9{fill:url(#Gradiente_sem_nome_44-3);}.cls-10{fill:url(#linear-gradient);}.cls-11{fill:url(#Gradiente_sem_nome_44-4);}.cls-12{fill:url(#Gradiente_sem_nome_16-4);}.cls-13{fill:#ffd45e;}.cls-14{fill:url(#Gradiente_sem_nome_20);}.cls-15{fill:url(#linear-gradient-2);}.cls-16{fill:url(#linear-gradient-3);}.cls-17{fill:#373f54;}.cls-18{fill:url(#Gradiente_sem_nome_31);}.cls-19{fill:url(#Gradiente_sem_nome_31-2);}.cls-20{fill:url(#linear-gradient-4);}.cls-21{fill:url(#linear-gradient-5);}.cls-22{fill:url(#Gradiente_sem_nome_31-3);}.cls-23{fill:url(#Gradiente_sem_nome_31-4);}.cls-24{fill:url(#Gradiente_sem_nome_4);}.cls-25{fill:#385fd4;}.cls-26{fill:url(#Gradiente_sem_nome_9);}.cls-27{fill:url(#Gradiente_sem_nome_9-2);}.cls-28{fill:url(#linear-gradient-6);}.cls-29{fill:url(#linear-gradient-7);}.cls-30{fill:url(#Gradiente_sem_nome_31-5);}.cls-31{fill:url(#Gradiente_sem_nome_31-6);}.cls-32{fill:url(#linear-gradient-8);}.cls-33{fill:url(#linear-gradient-9);}.cls-34{fill:url(#Gradiente_sem_nome_24);}.cls-35{fill:url(#Gradiente_sem_nome_24-2);}.cls-36{fill:url(#Gradiente_sem_nome_24-3);}.cls-37{fill:url(#linear-gradient-10);}.cls-38{fill:url(#Gradiente_sem_nome_16-5);}.cls-39{fill:url(#Gradiente_sem_nome_16-6);}.cls-40{fill:url(#linear-gradient-11);}.cls-41{fill:url(#linear-gradient-12);}.cls-42{fill:url(#Gradiente_sem_nome_16-7);}.cls-43{fill:url(#linear-gradient-13);}.cls-44{fill:url(#linear-gradient-14);}</style><linearGradient id="Gradiente_sem_nome_38" x1="215.53" y1="-22.72" x2="176.59" y2="309.29" gradientUnits="userSpaceOnUse"><stop offset="0.08" stop-color="#385fd4"/><stop offset="0.21" stop-color="#3358c9"/><stop offset="0.45" stop-color="#2444ab"/><stop offset="0.75" stop-color="#0d257b"/><stop offset="0.9" stop-color="#001462"/></linearGradient><linearGradient id="Gradiente_sem_nome_16" x1="206.72" y1="79.78" x2="174.58" y2="108.71" gradientUnits="userSpaceOnUse"><stop offset="0" stop-color="#f6b3b5"/><stop offset="1" stop-color="#fad1d3"/></linearGradient><linearGradient id="Gradiente_sem_nome_16-2" x1="168.65" y1="171.26" x2="182.02" y2="192.74" xlink:href="#Gradiente_sem_nome_16"/><linearGradient id="Gradiente_sem_nome_44" x1="259.09" y1="-17.69" x2="220.13" y2="314.52" gradientUnits="userSpaceOnUse"><stop offset="0" stop-color="#385fd4"/><stop offset="0.16" stop-color="#3358c9"/><stop offset="0.44" stop-color="#2444ab"/><stop offset="0.81" stop-color="#0d257b"/><stop offset="0.99" stop-color="#001462"/></linearGradient><linearGradient id="Gradiente_sem_nome_44-2" x1="208.9" y1="119.93" x2="242.75" y2="229.22" xlink:href="#Gradiente_sem_nome_44"/><linearGradient id="Gradiente_sem_nome_16-3" x1="182.72" y1="33.82" x2="167.29" y2="93.11" xlink:href="#Gradiente_sem_nome_16"/><linearGradient id="Gradiente_sem_nome_44-3" x1="169.37" y1="-28.13" x2="130.43" y2="303.88" xlink:href="#Gradiente_sem_nome_44"/><linearGradient id="linear-gradient" x1="161.44" y1="67.31" x2="220.08" y2="67.31" gradientUnits="userSpaceOnUse"><stop offset="0" stop-color="#373f54"/><stop offset="0.2" stop-color="#404d69"/><stop offset="0.43" stop-color="#47597a"/><stop offset="0.68" stop-color="#4c6084"/><stop offset="1" stop-color="#4d6287"/></linearGradient><linearGradient id="Gradiente_sem_nome_44-4" x1="213.74" y1="158.85" x2="106.46" y2="177.64" xlink:href="#Gradiente_sem_nome_44"/><linearGradient id="Gradiente_sem_nome_16-4" x1="151.35" y1="120.86" x2="192.74" y2="120.86" xlink:href="#Gradiente_sem_nome_16"/><linearGradient id="Gradiente_sem_nome_20" x1="440.72" y1="327.19" x2="442.09" y2="152.89" gradientUnits="userSpaceOnUse"><stop offset="0" stop-color="#001462"/><stop offset="0.07" stop-color="#081e71"/><stop offset="0.25" stop-color="#193595"/><stop offset="0.44" stop-color="#2748b0"/><stop offset="0.62" stop-color="#3055c4"/><stop offset="0.81" stop-color="#365cd0"/><stop offset="1" stop-color="#385fd4"/></linearGradient><linearGradient id="linear-gradient-2" x1="524.69" y1="242.76" x2="399.67" y2="242.76" gradientUnits="userSpaceOnUse"><stop offset="0" stop-color="#dbf5d1"/><stop offset="1" stop-color="#8cc6ff"/></linearGradient><linearGradient id="linear-gradient-3" x1="480.09" y1="149.23" x2="480.09" y2="328.02" xlink:href="#linear-gradient-2"/><linearGradient id="Gradiente_sem_nome_31" x1="423.42" y1="99" x2="394.3" y2="119.53" gradientUnits="userSpaceOnUse"><stop offset="0" stop-color="#f6b3b5"/><stop offset="0.99" stop-color="#fad1d3"/></linearGradient><linearGradient id="Gradiente_sem_nome_31-2" x1="406.11" y1="50" x2="384.15" y2="76.25" xlink:href="#Gradiente_sem_nome_31"/><linearGradient id="linear-gradient-4" x1="224.7" y1="-121.16" x2="224.7" y2="536.31" gradientUnits="userSpaceOnUse"><stop offset="0" stop-color="#c9ddff"/><stop offset="0.13" stop-color="#bed3fc"/><stop offset="0.37" stop-color="#a0baf3"/><stop offset="0.68" stop-color="#7090e5"/><stop offset="0.99" stop-color="#385fd4"/></linearGradient><linearGradient id="linear-gradient-5" x1="323.28" y1="-17.34" x2="323.28" y2="360.83" xlink:href="#linear-gradient-4"/><linearGradient id="Gradiente_sem_nome_31-3" x1="351.18" y1="132.55" x2="296.76" y2="154.03" xlink:href="#Gradiente_sem_nome_31"/><linearGradient id="Gradiente_sem_nome_31-4" x1="320.93" y1="61.41" x2="313.29" y2="141.61" xlink:href="#Gradiente_sem_nome_31"/><linearGradient id="Gradiente_sem_nome_4" x1="313.15" y1="215.72" x2="347.05" y2="97.06" gradientUnits="userSpaceOnUse"><stop offset="0" stop-color="#8cc6ff"/><stop offset="1" stop-color="#f6b3b5"/></linearGradient><linearGradient id="Gradiente_sem_nome_9" x1="305.47" y1="263.68" x2="305.47" y2="108.36" gradientUnits="userSpaceOnUse"><stop offset="0" stop-color="#8cc6ff"/><stop offset="1" stop-color="#385fd4"/></linearGradient><linearGradient id="Gradiente_sem_nome_9-2" x1="340.87" y1="263.68" x2="340.87" y2="108.36" xlink:href="#Gradiente_sem_nome_9"/><linearGradient id="linear-gradient-6" x1="399.06" y1="-82.02" x2="399.06" y2="523.71" xlink:href="#linear-gradient-4"/><linearGradient id="linear-gradient-7" x1="383.9" y1="-82.02" x2="383.9" y2="523.71" xlink:href="#linear-gradient-4"/><linearGradient id="Gradiente_sem_nome_31-5" x1="317.47" y1="302.56" x2="317.47" y2="269.11" xlink:href="#Gradiente_sem_nome_31"/><linearGradient id="Gradiente_sem_nome_31-6" x1="352.67" y1="253.22" x2="337.39" y2="208.83" xlink:href="#Gradiente_sem_nome_31"/><linearGradient id="linear-gradient-8" x1="174.72" y1="164.6" x2="116.56" y2="177.25" gradientUnits="userSpaceOnUse"><stop offset="0" stop-color="#f4a196"/><stop offset="0.17" stop-color="#ed9696"/><stop offset="0.46" stop-color="#dc7896"/><stop offset="0.85" stop-color="#c04896"/><stop offset="0.99" stop-color="#b43596"/></linearGradient><linearGradient id="linear-gradient-9" x1="167" y1="129.06" x2="108.83" y2="141.7" xlink:href="#linear-gradient-8"/><linearGradient id="Gradiente_sem_nome_24" x1="-20.22" y1="234.61" x2="289.59" y2="294.08" gradientUnits="userSpaceOnUse"><stop offset="0.1" stop-color="#001462"/><stop offset="0.3" stop-color="#142e8a"/><stop offset="0.49" stop-color="#2343aa"/><stop offset="0.68" stop-color="#2f53c1"/><stop offset="0.85" stop-color="#365ccf"/><stop offset="1" stop-color="#385fd4"/></linearGradient><linearGradient id="Gradiente_sem_nome_24-2" x1="-20.8" y1="237.62" x2="289.01" y2="297.09" xlink:href="#Gradiente_sem_nome_24"/><linearGradient id="Gradiente_sem_nome_24-3" x1="-40.8" y1="145.9" x2="235.29" y2="432.22" xlink:href="#Gradiente_sem_nome_24"/><linearGradient id="linear-gradient-10" x1="192.6" y1="-23.74" x2="23.29" y2="197.21" xlink:href="#linear-gradient-8"/><linearGradient id="Gradiente_sem_nome_16-5" x1="82.77" y1="31.18" x2="89.03" y2="82.04" xlink:href="#Gradiente_sem_nome_16"/><linearGradient id="Gradiente_sem_nome_16-6" x1="133.98" y1="2.98" x2="86.99" y2="56.25" xlink:href="#Gradiente_sem_nome_16"/><linearGradient id="linear-gradient-11" x1="114.31" y1="-188.54" x2="-16.93" y2="234.64" xlink:href="#linear-gradient-8"/><linearGradient id="linear-gradient-12" x1="73.22" y1="192.86" x2="170.71" y2="127.51" xlink:href="#linear-gradient"/><linearGradient id="Gradiente_sem_nome_16-7" x1="66.67" y1="181.31" x2="66.67" y2="149.3" xlink:href="#Gradiente_sem_nome_16"/><linearGradient id="linear-gradient-13" x1="306.95" y1="301.55" x2="318.26" y2="268.26" xlink:href="#linear-gradient"/><linearGradient id="linear-gradient-14" x1="3119.95" y1="298.59" x2="3133.71" y2="130.04" gradientTransform="matrix(-1, 0, 0, 1, 3337.98, 0)" xlink:href="#linear-gradient"/></defs><g id="Layer_2" data-name="Layer 2"><g id="Layer_1-2" data-name="Layer 1"><path class="cls-1" d="M496.49,178.35a17.8,17.8,0,0,0,.44-4.56c-1-27.49.55-59.24-17.15-74.22,0,0,.81-3.59-1.61-14.69S459.66,77,459.66,77c2.25-7.25-2.58-9.66-5.47-13.52s-3.55-17.71-12.72-33.17S417.16,19,417.16,19c-4.83-4.35-16.74,2.09-25.82,9.66-5.64,4.69-8.22,12.67-8.25,17.38h0v.1h0V88.57a30,30,0,0,0-2.73,11.14h0a32.62,32.62,0,0,0,0,3.28V163.6a128,128,0,0,0-19-6.7,12.8,12.8,0,0,0-.74-2.29c-1.75-4-7.42-7.17-10.32-8.54v.05c0-4,0-8.24,0-12.32h0v-.07c0-.43,0-.85,0-1.27,0-.17,0-.35,0-.52,0-.34,0-.67,0-1v-.8c0-.3,0-.6,0-.89s0-.52,0-.77c0-.41,0-.8,0-1.19v-.46c0-.28,0-.55,0-.83s0-.53,0-.79c0-1.45,0-2.78-.05-4v-.18c0-1.11,0-2.07,0-2.88,1.36-1.35,2.67-4.11,3.38-7.4,1-4.89.37-9.11-1.51-9.43,4-19.26-4.18-24.64-9.42-25.15s-4.23-8.27-21.17-7.57-21.09,9.44-21,12.69-6.28,3.52-6.5,11.13,0,9.41,3,14v-.06c1.33,13.24,5.09,25.86,10.89,33.79v8.4c-6.13,2.69-11.8,5-12.73,8.41l-1.35.28-.24.05h0c-17.11,3.63-30.71,8.91-38.19,14.06-1.19-20.62-5.5-47.33-6.76-52.36a3.87,3.87,0,0,0-1-1.92c-2.49-6.4-8.84-9.26-23.34-16.18,0,0,.82-7.14-9-13.26s1.12-39.85-15.29-52.84c-13.52-10.68-35.07-2.65-35.07,17.54v48.38c-1.52.47-3.14,1-4.81,1.45-7.22,2.13-15.26,4.4-19.09,6.56-7.83,4.4-6.91,23.7-1.25,37.55.26.64.53,1.33.8,2.05l-7.25-2V114.28c0-.86,0-1.71,0-2.57h0a43.71,43.71,0,0,0-2.82-14.26c-3.92-10.54-15.64-21-28.45-28.75a24.68,24.68,0,0,1,1.42-2c5,.46,10.77-3.37,17.37-9.87a75.48,75.48,0,0,0,12.08-15.67c.62,0,1.25,0,1.92-.11,12.48-1.33,15.37-18.22,4.38-21.24,0,0,4.78-5.81-3.72-8.5-7.78-2.47-8.09-.94-13.53-7C118.73.72,100,2.59,94.83,21.89h0c-1.41.37-2.85,1.72-3.64,4.06a13.82,13.82,0,0,0-.63,7.57c-4.28,5.3-14.61,18-19.65,22.77C34.26,49,9.74,66.38,5.52,90.77v0c-8,29.05-3.16,70.86,4.59,87,1.89,3.92,6.45,6.47,12.63,8,1.07.26,2.2.49,3.36.69C29,198.44,31,209.13,31,216.84c.94,32.75,3.52,65.35,5.07,90.19h84.62c3.76-24.62,7.15-57.68,1.8-87.06a169.9,169.9,0,0,1-2.92-31.56c3,1.82,11.18,5.68,19.55-.79a14.24,14.24,0,0,0,5.67-11.69l4.18-3.77c.69,1.63,1.42,3.23,2.18,4.77h0c.83,1.66,1.7,3.25,2.63,4.74h0c-7.17,8.83-8.24,14.67-2.62,18.59,2.13,1.48,6,1.63,10.53,1.33-.52,1.74-1.08,3.5-1.65,5.28H137.29a7.81,7.81,0,0,0-7.53,9.89l23.6,85.92a12.81,12.81,0,0,0,12.36,9.42H343.06a6.65,6.65,0,0,0,6.46-5.08H507.8s13.43-33.75,20-60.71C536.94,209,503.87,201.48,496.49,178.35Zm-88.42-14.26c2.23,1.81,4.85,3.75,7.95,5.86,13.81,9.41,18.31,14.3,20.05,18.62a119,119,0,0,1-8.16,10.71s-4,1.6-9.64,3.75c-2.84-9.49-6.17-17.21-9.89-21.49-.11-.11-.24-.24-.35-.37C408,176.82,408,170.32,408.07,164.09Zm20.54,99.28c-.8-10.63-2.29-22.73-4.37-34.42a134.2,134.2,0,0,0,14.24-3.68c-.26,5.09-.68,9.3-1,11.91S433.24,250.87,428.61,263.37Zm36-171.27-.08,0h0ZM350.27,150.25c0-.12,0-.23,0-.35C350.28,150,350.28,150.13,350.27,150.25Zm0,3.59c0-.19,0-.38,0-.57C350.23,153.46,350.23,153.65,350.23,153.84Zm0-1.68c0-.18,0-.35,0-.53C350.26,151.81,350.26,152,350.25,152.16ZM350,102.27a7.76,7.76,0,0,0-1.09,1.42c0-.14,0-.29,0-.43A7.31,7.31,0,0,1,350,102.27ZM233.41,155.82l.09-.14a122.47,122.47,0,0,1,.32,20,62.43,62.43,0,0,0-7.66,1.15C226.46,170.28,228.56,163.3,233.41,155.82ZM174.2,82a1,1,0,0,1-.17-.12l.17.11Zm14.88,45a31.67,31.67,0,0,0,9.6-.22l0,0h0l-.06,0a31.67,31.67,0,0,1-9.6.22Zm-16-29.53-.13.08ZM233,200.78c-.09.17-.19.34-.28.52l-.25-.47ZM191.08,57a9,9,0,0,0,.82.53,9,9,0,0,1-.82-.53,13.09,13.09,0,0,1-5.47-9.2,11.58,11.58,0,0,0-.18-1.17,11.58,11.58,0,0,1,.18,1.17A13.09,13.09,0,0,0,191.08,57Zm-6.74-13.21a4.33,4.33,0,0,0-2.58-2.06h0A4.33,4.33,0,0,1,184.34,43.82Zm-15.91,2.62c-1.52,3.69-2.27,10.24-1.83,16.79C166.15,56.69,166.89,50.17,168.43,46.44Zm.4-.88c-.13.24-.25.51-.37.78C168.58,46.07,168.7,45.8,168.83,45.56Zm-2.12,19c0-.28-.05-.57-.07-.85C166.66,64,166.68,64.24,166.71,64.52Zm5.8,33.33-.22.12Zm-.66.33-.25.12Zm-.87.39-.23.09ZM170,99l-.37.14Zm-.91.34-.43.15Zm-1,.35-.45.15Zm-1.39.47-.59.19Zm-1.09.35-.66.21Z"/><path class="cls-2" d="M149.78,260.87c2.95,12.48,7.3,26.49,11.81,39.71h74.78c1.69-5.43,3.36-11.27,5-17.47,9.18-35.78-.49-66.73-9.19-80.76s-16.2-30.7-2.93-51.16,14.53-36.37,14.53-36.37c-1.93-7.73-8-10.39-23.68-17.89l-2.39-.8c-3.32,13.5-10.34,24.24-22.77,26.43-16.2,2.85-30.81-7-38.21-24.37-7.13,2.11-15.07,4.35-18.85,6.48,0,0,19.82,43,23.6,67.38S140.74,222.67,149.78,260.87Z"/><path class="cls-3" d="M194.9,122.56c12.43-2.19,19.45-12.93,22.77-26.43-5.2-1.76-17.43-6-20.84-7.66-4.35-2.18-3.14-19.83-3.14-19.83l-23,6.56V92.34c0,1.6-6.57,3.65-14,5.85C164.09,115.54,178.7,125.41,194.9,122.56Z"/><path class="cls-4" d="M193.69,68.93l-23,6.55V90.05A46.85,46.85,0,0,1,195,122.82c12.35-2.24,19.34-12.95,22.65-26.41-5.2-1.76-17.43-6-20.83-7.66C192.48,86.58,193.69,68.93,193.69,68.93Z"/><path class="cls-5" d="M207.87,175.7c-10.26,3.14-19.94,6.59-25.06,6.59-10.15,0-25.15-14.27-32.24-5.55s-8.14,14.49-2.59,18.36,23.22-1.45,31.69.24c3.77.76,16.66,1.41,30.34,1.2C211.18,191.1,211,181.16,207.87,175.7Z"/><path class="cls-6" d="M244.14,114.82c-2.38-9.53-22,8-17.17,23.94,4.15,13.69,2.64,32.07,2.64,32.07l19.21,19.43C255.35,182.29,246.07,122.56,244.14,114.82Z"/><path class="cls-7" d="M236,170.92c-7.43-1.08-18.07,1.7-28.14,4.78,3.14,5.46,3.31,15.4,2.14,20.84,17-.26,35.2-1.86,38.81-6.28C248.82,190.26,257.53,174.06,236,170.92Z"/><path class="cls-8" d="M165.41,42.25c-4,7.84-3.59,34.51,7.62,37,9.79,2.15,15.24-7.4,15.24-7.4V54.14A12.94,12.94,0,0,1,182,44.49c-.6-5.42-3.81-6-3.81-6S171.46,42.47,165.41,42.25Z"/><path class="cls-9" d="M148,172.05c-5.06-10.19-8.42-23-11.38-30.28-5.59-13.68-6.5-32.75,1.24-37.1,14.26-7.31,20.31,17.82,21.27,25.11s2.91,24.33,8.23,30.44Z"/><path class="cls-10" d="M211.2,83.84c-9.67-6,1.11-39.38-15.11-52.2C182.74,21.08,161.44,29,161.44,49v47.8c5.29-1.65,9.27-3.17,9.27-4.42v-14c-8.9-5.67-9.08-28.7-5.3-36,6.05.22,12.77-3.76,12.77-3.76s3.21.58,3.81,6a12.94,12.94,0,0,0,6.28,9.65V71.83c0,16.61,4,34.77,13.46,35.78s11.08-11.48,18.33-10.68C220.06,96.93,220.87,89.88,211.2,83.84Z"/><path class="cls-11" d="M161.81,147.94c-5.28,7.22-13.55,13.53-13.83,24.11,4.49,9,10.32,16,18.39,15.07,11.9-1.34,16-15.33,17.42-28.15C175.84,159.58,165.72,153.3,161.81,147.94Z"/><path class="cls-12" d="M179.77,82.79c-2.27,1-10.31,8-10.31,9.79s3.61,15,3.61,19-3.69,21.54-8.52,31.91a26.77,26.77,0,0,1-2.74,4.48c3.91,5.36,14,11.64,22,11a140.45,140.45,0,0,0,.71-15.13s.82-29.31,2.15-31.39c1.21-1.9,1.2-5,1.2-7.71V99.31s1.84-.12,2-3.29c0-.09,0-.19,0-.29C189.81,92.27,182,81.75,179.77,82.79Z"/><path class="cls-13" d="M374.4,95.75V181.3s28.55.87,27.68,0,0-39.75,0-39.75Z"/><path class="cls-14" d="M430.82,190.42c2.36,16,.88,34.26,0,41.15s-21.19,68.49-21.19,68.49h49.49l13.63-65.26-18.09-49.86Z"/><path class="cls-15" d="M430.82,190.42c2.36,16,.88,34.26,0,41.15s-25.24,69-25.24,69h53.54l13.63-65.78-18.09-49.86Z"/><path class="cls-16" d="M489.13,173.44c7.29,22.86,40,30.25,31,67.16-6.51,26.64-19.78,60-19.78,60H438.53s19.38-58.09,19.38-65.78-12.17-47.23-12.17-47.23Z"/><path class="cls-13" d="M384.39,76.4c-7.3,3.48-13.95,18.95-7.3,33.48s7.61,11.93,10.14,23.34,1.53,17.72,22.4,31.93,20.24,18,21.19,25.27,59.69,5.69,58.74-21.48.55-58.53-16.94-73.32S384.39,76.4,384.39,76.4Z"/><path class="cls-17" d="M377.09,42.77V124.3s29.61-15.88,29.34-31.42-13.38-50.11-13.38-50.11Z"/><path class="cls-18" d="M397.88,91.69s3.95,6.38,5.28,9.12-4.59,14.87-2.64,25.26,14.82,8.62,17.69,0c.87-2.6,3.17-21,3.17-21V74.55Z"/><path class="cls-4" d="M403.16,100.81c8.32-9.32,16.93,30.14,3.3,32.15h.1l1.95.22a10.41,10.41,0,0,0,9.7-7.12c.87-2.6,3.17-21,3.17-21V74.55l-23.5,17.14S401.83,98.07,403.16,100.81Z"/><path class="cls-19" d="M380.55,40.44c-4.05,25.08.4,48.21,12.5,51s29.43-10.49,29.43-22.16,11.7-42.08-1.61-49S383.13,24.46,380.55,40.44Z"/><path class="cls-17" d="M390.72,38.15a107.3,107.3,0,0,1-11,8.07c-4.64,2.75-3.5-13.15,5.47-20.63S406,11.75,410.76,16.05c0,0,14.95-4.14,24,11.13s9.7,29,12.57,32.76,7.63,6.21,5.4,13.36c0,0,15.91-3.18,18.29,7.8s1.59,14.52,1.59,14.52-4.94-3.87-15.08-7.42c0,0-6.82,5.38-13.34,5.38S429.46,119.89,418,119.89l-.1-62.65S392.05,53.94,390.72,38.15Z"/><path class="cls-20" d="M245.58,171.43c-30.05,31.29-55.93,126.74-55.93,126.74h43.14l27-63.37Z"/><path class="cls-21" d="M402.08,176.6c-6.29-7.14-39.78-30.65-82.47-28.09-37.64,2.25-68.09,13.88-74,22.92-4.34,6.62,5.17,51.27,11.78,69a155.82,155.82,0,0,1,9.51,52.93s106.47-.62,107.09,0,13.23-39.28,14.89-59.13S386.78,192.52,402.08,176.6Z"/><path class="cls-22" d="M344.46,111.46s.54,33.09,0,43-15.84,18.76-21.52,19-18.27-8.15-20.24-22.22V121.34Z"/><path class="cls-4" d="M344.67,129.44c-.07-9.59-.21-18-.21-18l-41.76,9.88v24.5c3.48,15.31,26.57,11.12,32.07-3.39C337.93,134.13,340.62,131.66,344.67,129.44Z"/><path class="cls-23" d="M291.62,98.6c1.57,24.25,11.45,47.72,27.11,45.24,19.42-3.07,25.31-32.52,24.55-48.57s-9.92-26.08-23.84-26.1C306.2,69.16,290.29,78.08,291.62,98.6Z"/><path class="cls-24" d="M347.84,106.68c-1,4.83-3.39,8.5-5.26,8.19s-2.53-4.48-1.49-9.32,3.39-8.5,5.26-8.19S348.88,101.85,347.84,106.68Z"/><path class="cls-17" d="M291.94,102.4c-3-4.53-3.17-6.31-2.95-13.83s6.56-7.78,6.43-11,4-11.85,20.7-12.54,15.74,7,20.92,7.48,13.22,5.81,9.31,24.84c0,0-4.56.44-6.35,9.64a.82.82,0,0,1-1.46.27,12.25,12.25,0,0,1-1.53-3.52c-1.25-4.6-6.26,2.31-7.17-6.86-.65-6.53-16.58,5.46-28.41-5.14,0,0-1.75,2.34-6.79,2.19C291.72,93.85,291.94,102.4,291.94,102.4Z"/><path class="cls-25" d="M302.69,190.12s1.37,1.76,3.95-2.17,11.38-15.87,14.43-14.69v0c-6.2-1.29-16.59-9.34-18.37-22v-1c-4.93.68-9.65,1.52-14.14,2.47C287.31,159.67,292.57,182.37,302.69,190.12Z"/><path class="cls-25" d="M344.45,154.43c-.46,8.58-12.09,16.42-18.86,18.49h0c3.2-1.25,14.93,14.19,17,17.59s5.77-1.2,9.49-10.69c2.69-6.89,6.86-18.76,5.12-27.14a120.32,120.32,0,0,0-12.56-2.8C344.57,151.67,344.52,153.23,344.45,154.43Z"/><path class="cls-26" d="M302.7,151.22V144c-6.25,2.74-12,5.06-12.67,8.63-1.24,7,4.38,27.35,12.67,34.53,0,0,1.37,1.76,3.95-2.17s11.38-12.93,14.43-11.75v0C314.87,172,304.48,163.9,302.7,151.22Z"/><path class="cls-27" d="M354.9,150c-1.73-3.91-7.33-7.08-10.2-8.44,0,5.31-.08,10-.24,12.88-.46,8.59-12.09,16.42-18.86,18.49h0c3.2-1.25,14.93,11.25,17,14.65s4.55-.56,8.68-9.88C355.44,168.21,357.71,156.37,354.9,150Z"/><path class="cls-28" d="M422.75,273.57c0-27.44-8-82.43-20.67-97,0,0-19.85,10.62-26.13,44.27-1.87,10,1.32,38.77,2.15,50.9Z"/><path class="cls-29" d="M345.36,300.58h60.22c8.92,0,18.52-7.28,17.17-27s-33.63-17-44.65-1.8l-33.19,5.07Z"/><path class="cls-30" d="M315,299.38l2.85-2.67,8.67,3.07a14,14,0,0,0,4.68.8H348.4s8.14-1.74,8.4-11.34-8-12.4-11.6-12.4H326.35a14,14,0,0,1-2.81-.29l-13.4-2.8a8.21,8.21,0,0,0-5.8.92l-7.6,4.36a19.42,19.42,0,0,0-4,3.08l-13.78,13.82a2.72,2.72,0,0,0,1.93,4.65H312A4.45,4.45,0,0,0,315,299.38Z"/><path class="cls-13" d="M474.73,99.07c-12.91-7.46-35.54,13.76-30.67,38.85s-22.68,56.21-22.68,56.21S390.15,206.67,377.62,209a48.63,48.63,0,0,1,8,18.78c20.5-1.69,49.93-5.86,61.82-15.77,18-15,37.06-70.2,37.07-87.75C484.5,103.88,474.73,99.07,474.73,99.07Z"/><path class="cls-31" d="M374.35,209.43H334s-28.83,9.77-29.58,11.44-2.24,11.6,0,13.93,16.85,6.46,20.6,5.71,32.94-11.61,39.68-11.61c2.28,0,10.44-.22,20.93-1.08a48.63,48.63,0,0,0-8-18.78A18.47,18.47,0,0,1,374.35,209.43Z"/><path class="cls-32" d="M115.63,182.61s10.12,8,20.46,0,3.22-21.68,3.22-21.68l-23.68,12.62Z"/><polygon class="cls-33" points="130.22 107.61 130.22 167.46 110.76 167.46 110.76 110.88 130.22 107.61"/><path class="cls-34" d="M98.5,256.32c-1.88,10-12.52,24-19.29,44.26h38.68c3.71-24.33,7.06-57,1.77-86H97.36C99.42,224.35,100.26,246.92,98.5,256.32Z"/><path class="cls-35" d="M61.4,254.15s4.48,21.73,7.54,46.43H79.21C86,280.33,96.62,266.3,98.5,256.32c1.76-9.4.92-32-1.14-41.75h-35Z"/><path class="cls-36" d="M97.36,214.57a21.88,21.88,0,0,0-.85-3.1H29.28c.92,32.36,3.47,64.57,5,89.11H79.21C86,280.33,96.62,266.3,98.5,256.32,100.26,246.92,99.42,224.35,97.36,214.57Z"/><path class="cls-37" d="M75.1,54.34c-39.77-10.67-66.63,7.09-71,32.58-4,23.29,25.22,95.4,25.22,124.55,0,0,47.13,24.3,90.38,3.1,0,0-6.49-30.93,0-58.32s15.11-43.09,7.78-62.74C121,76.35,93.7,59.33,75.1,54.34Z"/><path class="cls-38" d="M90,28S75,46.88,68.62,52.9,74,71.22,82.84,76.45C88.7,79.9,101.05,83.73,97.41,73c0,0-2.06-6,7.91-14.56C105.32,58.4,94.24,25.31,90,28Z"/><path class="cls-4" d="M105.32,58.4s-5.14-15.34-9.76-24.28l-4.89,2.31C85,48.12,84,70.13,97.41,73,97.41,73,95.35,67,105.32,58.4Z"/><path class="cls-39" d="M95.88,24.61c1.27-7.2-5.16-7.74-7.18-1.73-2.3,6.86.24,11.62,2.88,10,0,0-5.13,15.5,1.33,24.84s14.69,5.75,25-4.39c8.86-8.72,14.62-19.38,15.52-23.48,2.33-10.71-8.79-19.37-19.22-18.81C101.42,11.76,95.88,24.61,95.88,24.61Z"/><path class="cls-17" d="M95.88,24.61c-.4,4.23.29,7.52,2.79,6.07s8.39-10,13.77-3.8,9.74,11.9,19.29,10.89c12.33-1.31,15.19-18,4.33-21,0,0,4.72-5.74-3.68-8.4-7.68-2.44-8-.92-13.37-7C115.91-2,97.36-.2,92.29,18.87,92.29,18.87,96.51,18,95.88,24.61Z"/><path class="cls-40" d="M34.9,147.68c.4-8.29,5.53-29.81,12.76-43.55s3.69-31.43-6.15-38.35S18.05,60.13,11.57,69.7C-5.87,95.44-.81,153.32,8.6,172.85c1.86,3.88,6.37,6.4,12.47,7.92C7.83,174.72,21.11,144.53,34.9,147.68Z"/><path class="cls-41" d="M86.19,171.26l26.13-31.62a4.5,4.5,0,0,1,4.65-1.47l44.33,12.22a1.44,1.44,0,0,1,.58,2.45L128.35,183.1a2.91,2.91,0,0,1-2.62.67L87.35,174.7A2.14,2.14,0,0,1,86.19,171.26Z"/><path class="cls-42" d="M117.55,158.75a14.58,14.58,0,0,0-8.4-8.32c-1.83-.53-15.51-.29-22.85-.12a15.75,15.75,0,0,0-8.06,2.4c-2.31,1.45-5.19,3.06-6.63,3.06H48.53a80.27,80.27,0,0,0-13.63-8.09c-13.79-3.15-27.07,27-13.83,33.09,22.27,5.52,66.21-2.54,84.68-8.86a20.2,20.2,0,0,0,10.18-7.5C117.24,162.5,118.14,160.43,117.55,158.75Z"/><path class="cls-43" d="M274.29,305.6h63.26a6.57,6.57,0,0,0,6.57-6.57h0a3,3,0,0,0-3-3H274.29a3,3,0,0,0-3,3v3.58A3,3,0,0,0,274.29,305.6Z"/><path class="cls-44" d="M162.34,305.6H294.46a7.72,7.72,0,0,0,7.45-9.76l-23.32-84.9a12.67,12.67,0,0,0-12.21-9.3H134.25a7.71,7.71,0,0,0-7.44,9.76l23.32,84.9A12.66,12.66,0,0,0,162.34,305.6Z"/></g></g></svg>